<svg xmlns="http://www.w3.org/2000/svg" xmlns:xlink="http://www.w3.org/1999/xlink" width="400" zoomAndPan="magnify" viewBox="0 0 300 149.999998" height="200" preserveAspectRatio="xMidYMid meet" version="1.0"><defs><g/><clipPath id="0ebb9f017f"><path d="M 12.859375 27 L 105 27 L 105 127 L 12.859375 127 Z M 12.859375 27 " clip-rule="nonzero"/></clipPath></defs><path fill="#1ed891" d="M 75.371094 64.574219 C 77.144531 66.328125 80.007812 66.316406 81.765625 64.546875 C 83.523438 62.777344 83.511719 59.917969 81.738281 58.164062 C 71.121094 47.667969 53.933594 47.742188 43.417969 58.335938 C 32.902344 68.929688 32.980469 86.085938 43.59375 96.582031 C 48.902344 101.828125 55.847656 104.433594 62.789062 104.402344 C 69.726562 104.371094 76.65625 101.703125 81.914062 96.40625 C 83.671875 94.636719 83.65625 91.777344 81.882812 90.023438 C 80.109375 88.269531 77.246094 88.28125 75.488281 90.050781 C 68.480469 97.105469 57.03125 97.160156 49.960938 90.167969 C 42.890625 83.175781 42.835938 71.746094 49.84375 64.6875 C 56.847656 57.636719 68.300781 57.582031 75.371094 64.574219 Z M 75.371094 64.574219 " fill-opacity="1" fill-rule="nonzero"/><g clip-path="url(#0ebb9f017f)"><path fill="#1ed891" d="M 104.550781 96.328125 C 104.523438 90.300781 102.144531 84.644531 97.855469 80.402344 C 96.085938 78.648438 96.074219 75.785156 97.828125 74.019531 C 106.601562 65.179688 106.535156 50.863281 97.679688 42.105469 C 78.195312 22.835938 46.632812 22.980469 27.328125 42.425781 C 17.976562 51.847656 12.855469 64.339844 12.917969 77.601562 C 12.976562 90.859375 18.210938 103.304688 27.648438 112.640625 C 37.390625 122.273438 50.152344 127.054688 62.890625 126.996094 C 75.628906 126.9375 88.347656 122.039062 98 112.316406 C 102.253906 108.035156 104.578125 102.355469 104.550781 96.328125 Z M 91.578125 105.964844 C 75.78125 121.871094 49.957031 121.992188 34.015625 106.226562 C 26.292969 98.589844 22.011719 88.410156 21.960938 77.558594 C 21.914062 66.707031 26.101562 56.488281 33.75 48.777344 C 49.546875 32.871094 75.371094 32.75 91.3125 48.515625 C 96.628906 53.773438 96.667969 62.363281 91.402344 67.664062 C 86.136719 72.964844 86.175781 81.558594 91.488281 86.8125 C 94.0625 89.359375 95.488281 92.753906 95.503906 96.371094 C 95.523438 99.988281 94.128906 103.394531 91.578125 105.964844 " fill-opacity="1" fill-rule="nonzero"/></g><path fill="#1ed891" d="M 62.007812 84.703125 C 61.523438 84.703125 61.046875 84.65625 60.574219 84.5625 C 60.101562 84.46875 59.640625 84.332031 59.195312 84.144531 C 58.75 83.960938 58.328125 83.734375 57.925781 83.46875 C 57.523438 83.203125 57.152344 82.898438 56.8125 82.558594 C 56.46875 82.214844 56.167969 81.847656 55.898438 81.445312 C 55.628906 81.046875 55.402344 80.621094 55.21875 80.175781 C 55.035156 79.734375 54.894531 79.273438 54.800781 78.800781 C 54.707031 78.328125 54.660156 77.851562 54.660156 77.371094 C 54.660156 76.890625 54.707031 76.414062 54.800781 75.941406 C 54.894531 75.46875 55.035156 75.011719 55.21875 74.566406 C 55.402344 74.121094 55.628906 73.699219 55.898438 73.296875 C 56.167969 72.898438 56.46875 72.527344 56.8125 72.1875 C 57.152344 71.84375 57.523438 71.542969 57.925781 71.273438 C 58.328125 71.007812 58.75 70.78125 59.195312 70.597656 C 59.640625 70.414062 60.101562 70.273438 60.574219 70.179688 C 61.046875 70.085938 61.523438 70.039062 62.007812 70.039062 C 62.488281 70.039062 62.96875 70.085938 63.441406 70.179688 C 63.914062 70.273438 64.375 70.414062 64.820312 70.597656 C 65.265625 70.78125 65.6875 71.007812 66.089844 71.273438 C 66.492188 71.542969 66.863281 71.84375 67.203125 72.1875 C 67.542969 72.527344 67.847656 72.898438 68.117188 73.296875 C 68.386719 73.699219 68.613281 74.121094 68.796875 74.566406 C 68.980469 75.011719 69.121094 75.46875 69.214844 75.941406 C 69.308594 76.414062 69.355469 76.890625 69.355469 77.371094 C 69.355469 77.851562 69.308594 78.328125 69.214844 78.800781 C 69.121094 79.273438 68.980469 79.734375 68.796875 80.175781 C 68.613281 80.621094 68.386719 81.046875 68.117188 81.445312 C 67.847656 81.847656 67.542969 82.214844 67.203125 82.558594 C 66.863281 82.898438 66.492188 83.203125 66.089844 83.46875 C 65.6875 83.734375 65.265625 83.960938 64.820312 84.144531 C 64.375 84.332031 63.914062 84.46875 63.441406 84.5625 C 62.96875 84.65625 62.488281 84.703125 62.007812 84.703125 Z M 62.007812 84.703125 " fill-opacity="1" fill-rule="nonzero"/><g fill="#ffffff" fill-opacity="1"><g transform="translate(106.614663, 86.398554)"><g><path d="M 1.359375 -21.140625 L 10.921875 -21.140625 C 13.234375 -21.140625 15.21875 -20.710938 16.875 -19.859375 C 18.539062 -19.015625 19.816406 -17.847656 20.703125 -16.359375 C 21.585938 -14.867188 22.03125 -13.179688 22.03125 -11.296875 L 22.03125 -9.84375 C 22.03125 -7.945312 21.585938 -6.253906 20.703125 -4.765625 C 19.816406 -3.285156 18.539062 -2.117188 16.875 -1.265625 C 15.21875 -0.421875 13.234375 0 10.921875 0 L 1.359375 0 Z M 14.65625 -10.015625 L 14.65625 -11.125 C 14.65625 -12.28125 14.289062 -13.203125 13.5625 -13.890625 C 12.84375 -14.585938 11.804688 -14.9375 10.453125 -14.9375 L 8.515625 -14.9375 L 8.515625 -6.203125 L 10.453125 -6.203125 C 11.804688 -6.203125 12.84375 -6.546875 13.5625 -7.234375 C 14.289062 -7.929688 14.65625 -8.859375 14.65625 -10.015625 Z M 14.65625 -10.015625 "/></g></g></g><g fill="#ffffff" fill-opacity="1"><g transform="translate(129.076626, 86.398554)"><g><path d="M 20.5 -9.03125 L 23.015625 -21.140625 L 30.34375 -21.140625 L 25.359375 0 L 17.578125 0 L 15.03125 -10.28125 L 12.453125 0 L 4.65625 0 L -0.3125 -21.140625 L 7.03125 -21.140625 L 9.546875 -9.03125 L 12.828125 -21.140625 L 17.234375 -21.140625 Z M 20.5 -9.03125 "/></g></g></g><g fill="#ffffff" fill-opacity="1"><g transform="translate(159.093453, 86.398554)"><g><path d="M 14.390625 -21.140625 L 21.109375 0 L 13.953125 0 L 13.09375 -3.0625 L 7.46875 -3.0625 L 6.59375 0 L -0.515625 0 L 6.171875 -21.140625 Z M 11.8125 -8.25 L 10.28125 -13.875 L 8.765625 -8.25 Z M 11.8125 -8.25 "/></g></g></g><g fill="#ffffff" fill-opacity="1"><g transform="translate(179.673936, 86.398554)"><g><path d="M 20.4375 -4.953125 L 20.4375 -2.46875 C 20.4375 -1.925781 20.484375 -1.460938 20.578125 -1.078125 C 20.679688 -0.691406 20.882812 -0.332031 21.1875 0 L 13.578125 0 C 13.328125 -0.3125 13.148438 -0.65625 13.046875 -1.03125 C 12.941406 -1.40625 12.890625 -1.882812 12.890625 -2.46875 L 12.890625 -5.09375 C 12.890625 -5.84375 12.769531 -6.351562 12.53125 -6.625 C 12.300781 -6.894531 11.90625 -7.03125 11.34375 -7.03125 L 8.375 -7.03125 L 8.375 0 L 1.359375 0 L 1.359375 -21.140625 L 12.765625 -21.140625 C 14.640625 -21.140625 16.179688 -20.878906 17.390625 -20.359375 C 18.597656 -19.847656 19.492188 -19.148438 20.078125 -18.265625 C 20.671875 -17.378906 20.96875 -16.378906 20.96875 -15.265625 C 20.96875 -14.097656 20.722656 -13.128906 20.234375 -12.359375 C 19.753906 -11.585938 19.148438 -10.992188 18.421875 -10.578125 C 17.703125 -10.160156 16.96875 -9.878906 16.21875 -9.734375 L 16.21875 -9.671875 C 17.625 -9.472656 18.675781 -8.992188 19.375 -8.234375 C 20.082031 -7.472656 20.4375 -6.378906 20.4375 -4.953125 Z M 8.375 -12.125 L 11.90625 -12.125 C 13.132812 -12.125 13.75 -12.644531 13.75 -13.6875 C 13.75 -14.195312 13.601562 -14.585938 13.3125 -14.859375 C 13.03125 -15.128906 12.5625 -15.265625 11.90625 -15.265625 L 8.375 -15.265625 Z M 8.375 -12.125 "/></g></g></g><g fill="#ffffff" fill-opacity="1"><g transform="translate(201.499089, 86.398554)"><g><path d="M 1.359375 -21.140625 L 12.109375 -21.140625 C 15.097656 -21.140625 17.269531 -20.507812 18.625 -19.25 C 19.988281 -18 20.671875 -16.164062 20.671875 -13.75 C 20.671875 -11.320312 19.988281 -9.472656 18.625 -8.203125 C 17.269531 -6.941406 15.097656 -6.3125 12.109375 -6.3125 L 8.375 -6.3125 L 8.375 0 L 1.359375 0 Z M 8.375 -12.078125 L 11.75 -12.078125 C 12.925781 -12.078125 13.515625 -12.609375 13.515625 -13.671875 C 13.515625 -14.734375 12.925781 -15.265625 11.75 -15.265625 L 8.375 -15.265625 Z M 8.375 -12.078125 "/></g></g></g><g fill="#ffffff" fill-opacity="1"><g transform="translate(222.484816, 86.398554)"><g><path d="M 1.359375 -4.546875 L 1.359375 -10.796875 L 12.65625 -10.796875 L 12.65625 -4.546875 Z M 1.359375 -4.546875 "/></g></g></g><g fill="#ffffff" fill-opacity="1"><g transform="translate(236.494601, 86.398554)"><g><path d="M 10.359375 -8.765625 L 13.75 -21.140625 L 21.140625 -21.140625 L 14.5 0 L 6.203125 0 L -0.515625 -21.140625 L 6.921875 -21.140625 Z M 10.359375 -8.765625 "/></g></g></g><g fill="#ffffff" fill-opacity="1"><g transform="translate(257.104021, 86.398554)"><g><path d="M 8.75 -21.140625 L 8.75 0 L 1.390625 0 L 1.390625 -21.140625 Z M 8.75 -21.140625 "/></g></g></g><g fill="#ffffff" fill-opacity="1"><g transform="translate(267.235052, 86.398554)"><g><path d="M 6.6875 -14.796875 L 0.375 -14.796875 L 0.375 -21.140625 L 20.328125 -21.140625 L 20.328125 -14.796875 L 14.046875 -14.796875 L 14.046875 0 L 6.6875 0 Z M 6.6875 -14.796875 "/></g></g></g></svg>
